<?xml version="1.0" standalone="no"?>
<!DOCTYPE svg PUBLIC "-//W3C//DTD SVG 20010904//EN"
 "http://www.w3.org/TR/2001/REC-SVG-20010904/DTD/svg10.dtd">
<svg version="1.0" xmlns="http://www.w3.org/2000/svg"
 width="286.000000pt" height="286.000000pt" viewBox="0 0 286.000000 286.000000"
 preserveAspectRatio="xMidYMid meet">
<metadata>
Created by potrace 1.14, written by Peter Selinger 2001-2017
</metadata>
<g transform="translate(0.000000,286.000000) scale(0.100000,-0.100000)"
fill="#000000" stroke="none">
<path d="M1706 2802 c-3 -4 4 -9 15 -9 23 -2 25 3 4 10 -8 4 -16 3 -19 -1z"/>
<path d="M1621 2781 c10 -21 9 -23 -6 -18 -9 4 -19 7 -21 7 -3 0 -2 6 2 13 4
6 3 8 -1 4 -15 -13 -13 -34 2 -33 9 0 18 -6 20 -14 4 -13 3 -13 -5 -1 -9 13
-13 13 -28 0 -21 -17 -22 -17 -46 18 -11 15 -18 20 -14 10 5 -14 1 -16 -24
-12 -20 4 -32 0 -38 -11 -5 -9 -20 -18 -33 -19 -13 -1 -30 -3 -37 -4 -7 0 -11
-5 -7 -10 3 -5 0 -13 -6 -17 -8 -4 -9 -3 -5 4 5 8 -1 12 -14 12 -12 0 -18 -4
-15 -10 4 -6 3 -10 -2 -9 -4 1 -10 0 -13 -1 -3 -1 -14 -3 -25 -5 -11 -2 -32
-6 -47 -9 -16 -4 -28 -2 -28 3 0 6 8 8 18 6 12 -2 17 4 18 21 1 13 -2 21 -7
18 -5 -3 -9 -12 -9 -20 0 -14 -20 -16 -30 -3 -3 4 -12 0 -20 -9 -13 -14 -12
-15 5 -8 11 4 16 4 12 0 -4 -4 -1 -14 6 -22 9 -12 6 -12 -14 1 -14 10 -34 15
-43 11 -10 -4 -16 -1 -16 7 0 7 -2 10 -5 7 -3 -3 -3 -13 1 -22 5 -12 10 -14
19 -6 9 7 14 7 18 -2 3 -9 -7 -13 -34 -14 -22 0 -39 3 -39 8 0 5 5 6 10 3 6
-3 10 -2 10 3 0 6 -7 12 -15 16 -8 3 -14 2 -14 -2 3 -18 -2 -32 -12 -32 -5 0
-7 5 -3 12 4 7 3 8 -5 4 -6 -4 -9 -11 -6 -16 3 -4 -2 -13 -11 -20 -12 -11 -17
-11 -27 0 -10 10 -8 12 6 7 12 -5 16 -3 11 5 -5 7 -3 8 5 3 10 -6 11 -3 2 13
-6 12 -17 24 -24 28 -8 5 -7 2 2 -9 8 -10 11 -21 7 -24 -4 -4 -12 -1 -17 7 -9
13 -10 12 -5 -2 3 -10 0 -20 -6 -24 -7 -4 -6 -10 3 -16 11 -7 9 -8 -5 -4 -13
5 -17 2 -12 -9 9 -25 -2 -17 -18 13 -8 15 -15 21 -16 13 0 -11 -3 -11 -15 -1
-13 11 -14 10 -9 -3 4 -12 1 -15 -15 -12 -12 2 -19 0 -16 -6 4 -5 0 -10 -7
-10 -7 -1 -20 -2 -28 -3 -8 0 -14 -7 -12 -14 2 -10 -4 -11 -20 -6 -22 6 -22 6
2 -14 22 -18 23 -20 5 -18 -11 2 -24 1 -30 -3 -15 -9 -36 -10 -30 -2 2 4 -2 8
-10 8 -8 0 -15 -4 -15 -9 0 -15 -19 -8 -23 10 -3 11 -5 9 -6 -8 -2 -48 -4 -59
-13 -54 -4 3 -11 -1 -14 -9 -3 -8 -13 -14 -22 -12 -9 2 -20 4 -24 4 -5 1 -8 6
-8 12 0 8 4 8 13 1 13 -11 39 -2 39 14 0 5 4 8 9 7 5 -2 9 1 9 6 0 6 -9 9 -19
8 -11 0 -19 -6 -18 -12 1 -5 -6 -10 -16 -10 -10 0 -23 -9 -29 -19 -8 -15 -12
-16 -19 -5 -6 10 -8 7 -6 -8 1 -16 5 -19 13 -12 8 6 13 5 17 -4 7 -18 -32 -16
-43 2 -5 9 -11 4 -21 -17 -7 -17 -17 -28 -21 -26 -5 3 -6 11 -2 17 3 7 -1 4
-9 -5 -8 -10 -18 -14 -22 -10 -5 4 -5 1 -1 -6 4 -7 11 -10 16 -7 5 3 12 1 15
-5 4 -6 3 -10 -2 -9 -4 1 -10 0 -13 -1 -3 -1 -14 -3 -25 -4 -56 -8 -69 -20
-53 -50 11 -21 11 -21 -10 -2 -12 10 -19 23 -15 29 3 6 1 7 -5 3 -9 -5 -7 -14
4 -31 15 -23 14 -23 -10 -21 -21 3 -26 -1 -26 -20 0 -13 -3 -24 -7 -25 -5 -1
-21 -2 -37 -3 -22 -1 -30 -7 -32 -23 -2 -13 1 -23 7 -23 6 0 3 -7 -5 -16 -9
-8 -16 -20 -16 -26 0 -6 -3 -9 -6 -6 -3 4 -1 15 5 27 6 11 7 22 2 25 -8 6 -26
-40 -22 -57 1 -5 -3 -6 -9 -2 -5 3 -10 1 -10 -5 0 -6 -5 -8 -12 -4 -7 5 -8 3
-4 -5 5 -7 15 -10 23 -7 8 3 11 1 8 -4 -3 -6 -13 -10 -21 -10 -8 0 -13 -4 -10
-9 3 -5 -1 -12 -10 -15 -8 -3 -13 -10 -9 -15 9 -16 -15 -24 -31 -10 -12 10
-13 9 -8 -6 5 -12 4 -16 -3 -12 -7 4 -10 0 -8 -10 2 -10 4 -22 4 -26 1 -5 7
-5 14 -1 9 5 9 3 -1 -7 -11 -11 -14 -12 -21 -1 -5 8 -8 -8 -7 -40 1 -42 -2
-52 -14 -50 -8 1 -3 -9 13 -22 31 -29 34 -38 9 -30 -13 5 -14 4 -3 -4 8 -6 20
-8 27 -5 7 2 23 -2 36 -11 28 -19 65 -14 85 11 13 17 13 16 4 -4 -15 -30 -14
-40 2 -18 8 10 19 15 25 11 6 -3 14 -1 18 5 4 8 3 9 -4 5 -6 -3 -16 2 -21 13
-14 25 -14 31 0 31 5 0 8 -4 4 -9 -3 -5 0 -13 6 -17 7 -4 9 -3 6 3 -8 13 17
35 29 25 4 -4 2 1 -5 10 -13 18 -6 42 10 33 5 -3 6 1 3 9 -3 9 -11 16 -17 16
-6 0 -7 -3 -4 -7 4 -3 0 -15 -10 -25 -10 -12 -12 -18 -4 -18 7 0 9 -5 5 -11
-4 -8 -9 -7 -15 2 -4 8 -3 19 3 26 6 7 8 13 4 13 -4 0 0 10 9 23 8 13 12 27 8
31 -4 4 0 4 9 1 9 -4 19 -1 24 6 4 8 3 10 -4 5 -7 -4 -12 -2 -12 3 0 6 5 11
11 11 6 0 9 9 6 19 -3 12 3 27 14 37 10 9 17 19 15 23 -2 3 7 6 20 6 19 0 23
-4 18 -20 -4 -18 -4 -18 6 -2 6 9 9 21 5 26 -10 16 15 23 33 9 15 -11 16 -11
5 3 -11 13 -8 25 12 65 14 27 25 43 25 36 0 -18 32 -11 48 11 7 9 17 15 22 12
4 -3 6 4 3 14 -3 14 0 19 14 18 11 -1 18 5 18 15 0 10 6 23 13 30 9 9 12 9 12
0 0 -7 4 -12 10 -12 5 0 9 3 9 8 -3 19 2 23 15 13 11 -10 16 -8 20 7 7 20 54
25 69 7 5 -6 6 -2 3 9 -5 14 -2 17 10 12 15 -6 15 -4 0 18 -15 23 -15 25 3 21
11 -2 22 3 25 11 3 9 10 13 15 9 6 -3 14 3 20 12 6 10 11 15 11 10 0 -4 12 1
27 10 15 10 24 13 20 7 -11 -19 30 -23 54 -6 21 14 22 14 16 -1 -3 -9 -2 -19
4 -22 5 -4 9 -3 8 2 -5 27 1 35 16 23 13 -11 14 -10 9 4 -3 9 -2 16 4 16 6 0
13 -6 15 -12 4 -10 6 -10 6 0 1 8 6 10 14 6 7 -5 6 0 -3 11 -14 17 -13 18 3
12 10 -4 21 -7 23 -7 3 0 2 -5 -2 -12 -4 -7 -3 -8 4 -4 6 4 9 13 6 21 -4 8 -9
13 -13 10 -4 -2 -8 2 -8 10 0 8 2 13 5 10 3 -2 14 0 25 6 13 7 17 7 13 1 -10
-16 14 -26 27 -12 9 10 9 11 0 6 -17 -10 -16 -1 1 13 11 9 16 9 22 0 5 -8 3
-9 -5 -4 -10 6 -11 3 -2 -14 14 -25 23 -28 14 -4 -5 11 -3 14 6 8 10 -6 11 -3
2 13 -10 18 -8 20 9 17 11 -2 22 0 25 6 11 16 33 10 40 -12 7 -20 7 -20 21 -2
14 17 15 16 9 -7 l-6 -25 15 24 c7 14 12 31 9 38 -3 7 0 13 6 13 6 0 10 -3 10
-7 -4 -23 4 -23 25 0 24 26 25 26 31 7 4 -11 11 -18 16 -14 6 4 6 11 -1 19 -9
10 -7 13 7 10 10 -2 19 -4 21 -5 1 -2 6 -3 11 -4 5 0 13 -4 17 -8 3 -4 -3 -5
-15 -3 -12 2 -19 0 -16 -6 4 -5 10 -7 15 -4 4 3 11 -1 13 -7 4 -10 6 -9 6 1 1
11 4 11 19 0 15 -12 16 -12 5 2 -7 9 -9 20 -5 24 4 5 1 5 -5 1 -7 -4 -13 -2
-13 4 0 7 6 10 14 7 7 -3 24 2 37 10 l24 16 -25 -27 c-19 -21 -21 -26 -6 -20
11 4 22 2 28 -7 7 -11 8 -9 4 6 -3 11 -1 27 5 35 10 13 10 13 6 0 -3 -9 1 -24
9 -35 8 -10 14 -13 14 -6 0 8 7 10 21 6 19 -6 20 -5 8 8 -8 8 -22 13 -31 12
-12 -3 -15 1 -11 12 5 12 7 12 14 1 7 -10 9 -10 9 0 0 8 8 5 22 -8 25 -23 34
-25 44 -9 5 8 13 4 27 -12 l19 -24 -16 27 c-17 29 -22 53 -6 28 8 -12 12 -13
19 -1 7 10 13 11 31 1 18 -9 24 -9 30 0 6 9 10 6 15 -9 3 -12 11 -19 16 -15 6
4 6 10 0 18 -8 9 -7 13 4 13 8 0 12 -4 9 -8 -2 -4 0 -10 6 -14 5 -3 10 -11 10
-16 0 -6 -4 -8 -8 -5 -5 3 -9 -1 -9 -9 0 -11 4 -12 14 -4 7 7 11 22 7 38 l-5
26 15 -25 c8 -14 13 -27 11 -31 -2 -3 2 -6 9 -6 7 0 13 6 13 13 0 7 -4 11 -8
9 -4 -3 -6 3 -5 12 2 10 7 16 12 13 5 -3 8 -8 7 -12 -2 -4 6 -6 17 -5 11 1 20
6 20 12 0 5 4 4 9 -4 12 -18 51 -25 51 -9 0 6 3 8 7 5 3 -4 -2 -17 -13 -29
-11 -14 -13 -18 -3 -10 12 9 20 9 35 -3 10 -8 23 -15 29 -15 5 0 -1 7 -13 16
-12 8 -22 20 -22 26 0 7 6 5 13 -4 17 -22 43 -28 56 -15 7 7 12 8 11 2 -5 -21
1 -25 20 -15 14 7 20 7 20 0 0 -5 -7 -10 -15 -10 -8 0 -15 -5 -15 -10 0 -6 6
-9 13 -8 6 2 11 -3 9 -10 -1 -8 2 -11 8 -7 5 3 10 1 10 -6 0 -7 3 -9 6 -6 4 4
1 13 -5 21 -9 11 -9 16 0 22 7 4 9 3 6 -3 -6 -9 16 -22 46 -27 13 -2 27 -30
17 -36 -5 -3 1 -12 13 -19 21 -13 21 -13 7 4 -14 17 -13 18 2 12 9 -3 19 -1
22 6 3 9 5 8 5 -1 1 -7 5 -10 11 -7 6 3 7 -1 3 -10 -5 -13 -7 -14 -14 -3 -6 9
-9 9 -9 1 0 -6 5 -15 10 -18 6 -4 7 -11 4 -17 -4 -5 5 -2 20 7 24 16 31 14 27
-8 -1 -4 6 -10 14 -14 14 -5 14 -8 -2 -26 -18 -20 -18 -20 8 -3 l27 17 25 -43
c18 -30 22 -48 16 -59 -7 -14 -5 -16 14 -12 17 4 19 2 8 -5 -16 -11 -25 -46
-10 -36 5 3 7 9 5 13 -3 4 1 8 9 8 12 0 12 -3 3 -15 -10 -11 -9 -16 5 -23 13
-8 14 -15 7 -34 -5 -14 -7 -25 -4 -25 4 0 1 -7 -6 -15 -6 -8 -9 -19 -5 -25 11
-18 25 0 21 26 -3 13 -1 22 4 19 4 -3 7 -16 5 -30 -1 -14 2 -28 7 -31 5 -3 4
-12 -3 -20 -6 -8 -8 -14 -5 -14 4 0 2 -9 -4 -19 -7 -13 -7 -22 0 -26 17 -11
11 -22 -20 -35 -29 -12 -41 -30 -20 -30 6 0 10 4 10 8 0 5 7 9 16 9 15 0 15
-2 0 -13 -11 -8 -13 -14 -6 -19 16 -10 2 -24 -20 -20 -11 2 -23 -1 -26 -7 -4
-7 -2 -8 4 -4 7 4 12 2 12 -4 0 -6 4 -8 10 -5 6 3 7 -1 4 -9 -7 -19 -21 -21
-27 -3 -2 6 -4 0 -4 -15 0 -20 4 -25 16 -21 13 4 13 2 -1 -7 -20 -12 -25 -36
-6 -24 7 4 8 3 4 -5 -4 -6 -11 -9 -16 -6 -4 2 -13 -9 -20 -26 -7 -17 -24 -35
-37 -40 -12 -4 -23 -14 -23 -21 0 -9 3 -9 12 0 7 7 16 12 21 12 5 0 -5 -12
-22 -26 -17 -14 -28 -30 -25 -36 4 -5 -4 -5 -16 2 -18 10 -21 9 -15 -1 6 -9 3
-10 -10 -5 -15 5 -16 4 -5 -9 7 -8 17 -12 24 -8 7 4 7 1 -1 -7 -10 -11 -15
-11 -28 0 -12 10 -15 10 -16 -1 -1 -8 -2 -23 -3 -34 0 -11 -5 -20 -11 -20 -15
0 -54 -42 -47 -51 4 -4 1 -4 -7 1 -12 7 -11 10 4 22 11 7 14 13 8 13 -7 0 -15
-4 -18 -10 -3 -5 -11 -10 -18 -10 -8 0 -8 3 1 12 7 7 12 16 12 22 0 5 -6 1
-14 -10 -13 -16 -13 -21 0 -36 12 -12 12 -18 3 -24 -8 -4 -10 -3 -5 4 11 18
-10 14 -28 -4 -9 -8 -13 -20 -10 -26 4 -7 2 -8 -5 -4 -6 4 -9 12 -6 17 4 5 1
9 -4 9 -6 0 -12 -7 -12 -15 -1 -8 -2 -21 -3 -27 -1 -8 -15 -12 -36 -12 -39 2
-55 -13 -37 -35 10 -12 9 -13 -10 -3 -28 15 -30 15 -37 -4 -5 -14 -4 -15 8 -5
10 9 16 9 21 1 4 -6 4 -14 1 -17 -3 -4 -6 -1 -6 6 0 7 -5 9 -10 6 -6 -4 -7
-11 -4 -17 4 -6 -3 -5 -15 2 -14 7 -27 8 -34 2 -7 -5 -20 -8 -29 -7 -10 2 -20
-1 -24 -6 -3 -5 -11 -6 -17 -3 -7 4 -9 4 -5 -1 10 -11 -12 -36 -24 -29 -6 4
-5 -4 2 -16 7 -13 8 -20 2 -16 -6 3 -13 2 -17 -4 -3 -6 -18 -8 -33 -6 -26 5
-26 5 -7 -11 15 -12 16 -14 3 -10 -9 3 -19 3 -21 -1 -2 -4 -2 -1 -1 6 2 6 -1
12 -6 12 -5 0 -11 -8 -13 -17 -4 -16 -5 -16 -6 1 0 10 7 25 17 33 15 13 15 13
-4 4 -17 -8 -25 -7 -34 4 -7 8 -9 15 -4 15 5 0 2 5 -6 10 -11 7 -12 12 -3 21
8 8 9 18 2 30 -7 14 -6 17 4 13 9 -3 13 -17 12 -35 -1 -16 1 -29 5 -29 17 0 3
93 -16 107 -11 8 -13 13 -5 13 11 0 11 3 0 17 -10 11 -10 14 -1 9 7 -4 12 -2
12 4 0 7 7 9 16 6 8 -3 13 -2 9 3 -3 5 -2 11 2 14 5 2 3 3 -2 1 -6 -1 -11 9
-11 21 0 13 3 22 8 19 4 -3 13 4 20 16 7 11 17 20 22 20 5 0 1 -10 -10 -22
-19 -23 -19 -23 2 -5 11 9 23 15 25 12 3 -2 5 4 5 14 0 12 -6 17 -16 14 -10
-3 -9 -1 3 7 9 6 14 16 11 22 -4 7 -2 8 5 4 6 -4 9 -11 6 -16 -3 -4 3 -14 13
-21 15 -13 16 -12 3 4 -13 16 -9 21 14 18 6 -1 2 5 -8 13 -12 9 -14 16 -8 21
6 3 11 2 11 -3 0 -6 7 -12 15 -16 13 -5 14 -2 4 15 -6 11 -8 23 -5 27 3 3 6 0
6 -7 0 -7 5 -9 10 -6 6 4 8 11 5 16 -11 17 4 9 26 -13 l21 -23 -11 23 c-11 21
-10 22 14 18 14 -3 23 -1 20 5 -5 8 5 12 25 11 3 0 11 6 18 14 18 20 3 17 -35
-6 -19 -11 -35 -15 -38 -9 -4 5 -1 8 7 7 7 -2 12 2 11 9 -2 8 4 10 14 6 11 -4
14 -3 9 6 -4 6 -4 11 1 10 27 -5 53 3 53 16 0 8 5 15 11 15 8 0 7 6 -2 18 -7
9 -1 6 15 -8 26 -23 28 -23 18 -4 -15 28 -4 37 23 20 22 -14 22 -14 11 9 -6
13 -15 21 -21 17 -5 -3 -3 3 5 14 22 29 24 30 17 12 -4 -10 -2 -18 3 -18 10 0
14 14 11 35 -1 6 6 1 14 -9 8 -11 15 -15 15 -9 0 7 -7 19 -16 27 -21 22 -5 20
19 -1 20 -18 20 -18 1 12 -18 30 -18 30 1 15 17 -14 18 -13 12 3 -5 14 -2 16
18 13 14 -3 28 0 31 6 4 6 3 8 -2 5 -6 -3 -16 -2 -24 4 -11 6 -7 9 14 9 16 0
26 3 23 6 -3 4 -2 15 4 26 6 11 13 17 16 15 8 -9 42 26 36 36 -3 6 -1 7 5 3
11 -7 17 7 12 29 -1 5 2 7 6 3 8 -9 36 40 29 51 -2 4 2 8 8 8 7 0 14 -9 14
-19 1 -10 -2 -16 -8 -13 -5 4 -13 -5 -18 -18 -14 -36 -71 -98 -84 -90 -6 4 -8
0 -4 -11 5 -11 3 -15 -5 -10 -7 4 -8 3 -4 -4 11 -18 23 -14 29 9 3 12 10 18
16 14 6 -3 8 -11 5 -17 -4 -7 -2 -8 5 -4 9 6 9 11 0 22 -6 8 -7 14 -2 14 5 0
17 14 27 30 9 17 21 28 26 25 5 -3 12 0 16 6 4 8 3 9 -4 5 -7 -4 -12 -1 -12 8
0 9 6 15 13 13 6 -1 12 7 12 18 1 12 7 19 15 17 10 -2 11 0 2 11 -7 8 -8 18
-4 22 4 5 1 5 -6 1 -7 -4 -9 -13 -5 -19 4 -7 0 -6 -10 2 -18 14 -23 26 -7 16
5 -3 9 5 8 17 -1 37 1 50 10 44 5 -3 9 1 9 9 0 13 -4 12 -19 -2 -20 -18 -25
-4 -6 15 17 17 -2 35 -22 21 -13 -9 -12 -10 3 -5 9 3 17 1 17 -5 0 -7 -10 -9
-25 -5 -14 4 -25 3 -25 -2 0 -5 -7 -9 -15 -9 -8 0 -12 4 -9 9 3 4 -2 8 -11 8
-9 0 -13 -5 -9 -11 4 -7 1 -10 -7 -7 -8 3 -13 14 -12 24 1 10 0 13 -3 6 -3 -6
-11 -9 -17 -5 -7 4 -5 -2 3 -12 14 -17 13 -18 -2 -12 -12 4 -16 1 -13 -13 3
-13 -1 -17 -11 -13 -7 3 -11 10 -7 17 3 6 -3 3 -14 -7 -11 -9 -23 -14 -28 -10
-4 5 -5 3 -2 -3 4 -7 0 -17 -8 -24 -17 -14 -21 -45 -5 -35 6 4 8 10 5 15 -3 5
-1 11 5 15 15 9 12 -21 -3 -34 -10 -8 -17 -7 -25 1 -16 16 -15 -4 1 -21 10
-11 8 -11 -10 -2 -19 10 -23 9 -23 -4 0 -9 4 -14 8 -11 5 3 9 -1 9 -9 0 -10
-6 -11 -23 -5 -13 5 -26 6 -28 1 -8 -13 4 -20 22 -14 15 4 15 3 2 -6 -8 -6
-15 -15 -15 -21 0 -5 -4 -9 -10 -7 -5 1 -9 7 -7 14 1 6 -1 14 -6 17 -5 3 -9 0
-9 -7 0 -7 -4 -21 -9 -31 -6 -15 -4 -17 7 -11 12 8 12 6 0 -8 -14 -18 -26 -23
-16 -8 3 5 1 12 -4 16 -6 3 -8 13 -5 23 5 14 4 14 -4 3 -6 -8 -8 -21 -4 -29 3
-10 1 -13 -6 -8 -6 3 -13 2 -17 -4 -4 -6 -10 -8 -15 -5 -4 3 -11 -2 -14 -10
-4 -12 -2 -13 13 -6 10 6 22 7 26 3 5 -4 5 -1 0 7 -6 10 -4 12 4 6 10 -5 10
-10 1 -19 -11 -11 -15 -12 -45 -15 -8 0 -14 -6 -12 -12 1 -6 -11 -13 -26 -16
-21 -3 -27 0 -21 8 4 8 3 9 -5 5 -9 -6 -9 -11 0 -22 10 -12 9 -13 -6 -8 -13 5
-16 4 -11 -4 5 -8 2 -10 -9 -6 -9 4 -15 3 -14 -2 1 -5 1 -16 0 -24 -1 -13 -2
-13 -11 0 -8 13 -11 12 -23 -4 -9 -13 -16 -15 -21 -8 -8 13 30 36 45 26 8 -4
7 0 0 15 -7 11 -14 21 -17 21 -3 0 -3 -4 1 -9 7 -12 -31 -34 -44 -27 -4 3 -6
-6 -3 -19 2 -14 0 -25 -4 -26 -5 0 -17 -2 -27 -4 -11 -2 -16 0 -12 3 4 4 12 7
17 7 22 0 19 24 -4 35 -21 10 -21 10 -5 -3 23 -19 22 -25 -5 -23 -13 1 -31 -2
-41 -7 -16 -7 -17 -6 -8 12 6 11 13 37 15 58 2 21 2 32 -1 26 -7 -20 -22 -15
-20 6 0 11 5 17 9 15 8 -5 12 18 8 45 -1 8 4 18 12 23 9 6 6 7 -9 3 -12 -3
-24 -1 -28 5 -4 6 -1 9 6 8 6 -2 14 3 17 11 3 8 0 11 -7 7 -7 -5 -9 -1 -5 8 3
9 10 13 15 10 5 -3 6 2 3 11 -4 8 -1 22 5 29 9 11 9 16 0 22 -7 4 -9 3 -6 -3
4 -6 -1 -17 -10 -24 -14 -12 -16 -12 -11 2 4 9 1 22 -5 29 -9 10 -9 11 0 6 7
-4 21 -2 30 3 16 9 15 11 -7 12 -14 1 -29 1 -33 0 -5 -1 -6 3 -2 9 3 6 10 8
15 5 5 -3 11 -1 15 5 4 6 11 7 17 4 5 -4 3 5 -6 18 -9 14 -13 27 -10 31 10 10
-46 28 -59 20 -7 -4 -6 1 2 10 12 15 10 16 -25 13 -51 -5 -75 -15 -67 -30 3
-6 2 -7 -3 -3 -5 5 -9 13 -9 18 0 5 -3 9 -7 9 -5 0 -13 0 -19 0 -6 0 -3 -7 5
-16 19 -18 11 -38 -13 -31 -26 7 -23 -92 4 -116 11 -10 14 -15 6 -11 -11 5
-13 3 -8 -10 4 -11 3 -15 -4 -11 -6 4 -8 13 -5 21 3 8 2 14 -3 14 -5 0 -11 -9
-14 -21 -4 -13 -10 -18 -18 -13 -8 4 -10 3 -5 -5 6 -9 11 -9 22 0 17 14 19 -2
2 -21 -11 -12 -10 -12 3 -2 14 10 18 10 23 -3 3 -9 2 -13 -3 -10 -5 3 -12 1
-16 -5 -3 -5 -1 -10 6 -10 10 0 10 -3 1 -12 -7 -7 -12 -17 -12 -22 1 -6 10 0
20 13 11 13 20 18 20 13 0 -6 -4 -13 -9 -16 -4 -3 -11 -18 -14 -33 -3 -16 -9
-37 -13 -48 -7 -18 -6 -18 9 -6 9 7 14 18 10 24 -3 6 -1 7 6 3 6 -4 8 -13 4
-19 -4 -7 -13 -27 -19 -44 -11 -32 -8 -39 19 -34 5 1 6 -3 2 -9 -4 -6 -16 -8
-28 -5 -12 2 -16 2 -9 -1 18 -8 15 -24 -5 -25 -12 0 -13 -2 -5 -6 7 -3 19 0
26 7 11 8 16 8 22 -1 5 -8 3 -9 -6 -4 -10 6 -12 4 -7 -8 4 -11 2 -14 -9 -10
-9 3 -14 -1 -14 -12 0 -9 4 -14 9 -11 5 3 12 -1 15 -10 3 -9 2 -12 -4 -9 -7 4
-9 -5 -5 -24 4 -23 1 -31 -10 -32 -29 -3 -33 -4 -42 -13 -5 -6 -2 -6 6 -1 11
6 13 4 8 -11 -7 -18 -7 -18 7 0 14 18 15 18 13 -2 -1 -16 -7 -19 -34 -17 -18
1 -30 -2 -27 -7 3 -4 9 -6 14 -3 5 3 11 1 15 -5 4 -6 12 -7 18 -3 7 4 6 -1 -2
-10 -11 -14 -16 -15 -29 -5 -13 11 -14 10 -3 -10 9 -18 9 -22 -1 -20 -7 2 -12
-3 -10 -10 1 -8 -2 -11 -8 -7 -8 5 -8 11 0 20 8 9 8 15 0 20 -6 4 -9 1 -8 -7
2 -7 -2 -12 -8 -11 -6 1 -11 -4 -11 -12 0 -8 4 -12 8 -10 4 3 10 -2 13 -11 3
-8 2 -12 -3 -9 -5 3 -13 -4 -16 -16 -7 -20 -7 -20 -22 -2 -8 10 -11 12 -7 4 5
-11 3 -13 -9 -8 -9 3 -19 1 -23 -5 -4 -7 -3 -8 4 -4 7 4 12 2 12 -4 0 -6 6 -8
13 -5 6 4 3 -1 -8 -10 -11 -9 -19 -21 -17 -26 1 -6 -4 -6 -16 0 -20 11 -52 -2
-33 -13 6 -4 11 -2 11 4 0 6 5 8 11 5 6 -5 4 -12 -8 -20 -15 -12 -20 -12 -31
3 -12 15 -12 13 -6 -12 6 -26 5 -28 -8 -15 -9 8 -14 17 -11 21 2 4 -3 5 -12 2
-14 -6 -14 -8 1 -19 14 -9 14 -14 4 -20 -9 -6 -11 -4 -5 5 6 9 4 11 -4 6 -7
-5 -10 -15 -7 -25 5 -14 4 -13 -8 2 -18 23 -25 21 -19 -5 4 -23 4 -23 -10 1
-12 20 -15 21 -20 7 -4 -10 -12 -14 -18 -10 -8 5 -9 3 -4 -6 6 -10 4 -12 -10
-6 -15 5 -16 4 -5 -9 10 -13 9 -15 -9 -15 -11 0 -21 -4 -21 -10 0 -5 8 -7 18
-3 14 5 13 3 -3 -10 -22 -17 -61 -5 -49 15 4 6 3 8 -3 5 -6 -4 -9 -18 -8 -31
2 -19 -1 -23 -13 -19 -11 5 -13 3 -7 -7 5 -8 4 -11 -2 -7 -6 4 -16 0 -23 -8
-9 -11 -17 -12 -31 -4 -10 5 -19 7 -19 3 0 -3 -8 0 -17 7 -14 12 -14 10 2 -14
14 -22 15 -26 2 -21 -8 3 -18 0 -22 -7 -6 -8 -12 -5 -20 11 -10 19 -13 20 -18
6 -4 -10 -3 -15 1 -12 5 3 9 -2 9 -11 0 -12 -5 -10 -20 8 l-20 24 7 -25 c6
-21 5 -23 -6 -10 -7 8 -29 16 -50 16 -31 1 -36 -2 -33 -18 3 -15 0 -18 -12
-14 -11 5 -14 2 -9 -9 3 -9 2 -14 -3 -11 -4 3 -17 -1 -27 -9 -23 -17 -34 -19
-34 -4 0 5 4 7 10 4 6 -4 7 1 3 11 -5 15 -7 14 -16 -2 -15 -29 -15 -29 -39 -8
-13 10 -17 12 -10 4 15 -17 16 -40 1 -40 -5 0 -8 4 -4 9 3 5 0 13 -6 17 -8 4
-9 3 -5 -4 10 -16 -6 -15 -24 1 -8 6 -6 2 5 -11 18 -22 18 -23 0 -16 -13 5
-16 4 -10 -5 6 -10 3 -11 -15 -1 -14 8 -25 8 -29 2 -3 -5 -22 -9 -43 -8 -20 0
-34 -3 -30 -8 3 -5 -3 -6 -13 -2 -15 5 -16 4 -5 -9 11 -13 15 -13 22 -3 7 10
8 10 5 -2 -2 -8 -11 -13 -18 -12 -37 10 -49 10 -44 2 3 -5 1 -11 -5 -15 -5 -3
-10 -12 -10 -18 0 -7 9 -1 19 12 13 17 20 20 26 12 4 -7 4 -15 1 -18 -3 -4 -6
0 -6 7 0 8 -11 0 -23 -18 -13 -17 -28 -28 -32 -24 -5 4 -5 -1 -2 -10 4 -13 2
-15 -10 -11 -14 6 -14 8 4 23 17 13 18 18 6 28 -9 9 -13 9 -13 1 0 -6 -7 -9
-17 -5 -17 6 -17 5 -1 -7 21 -16 14 -28 -10 -20 -10 4 -6 -3 8 -15 15 -13 19
-21 10 -20 -10 2 -15 -5 -14 -24 1 -17 -3 -25 -10 -22 -6 2 -3 -1 8 -8 49 -34
65 -50 62 -61 -1 -7 -1 -9 1 -5 3 5 13 4 22 -2 10 -5 21 -6 25 -3 10 10 7 45
-4 38 -5 -3 -6 -13 -3 -21 5 -14 3 -15 -14 -5 -11 6 -23 17 -26 24 -7 18 38
17 70 -1 13 -7 23 -8 23 -3 0 5 -5 11 -12 13 -7 3 -5 7 6 11 10 4 15 3 11 -3
-3 -6 -1 -10 5 -10 6 0 8 -5 4 -12 -4 -6 -3 -8 4 -5 5 4 8 16 5 27 -3 12 0 20
6 20 7 0 9 -4 6 -10 -3 -5 1 -10 10 -10 9 0 14 4 10 9 -3 5 -1 12 4 15 15 10
24 -13 11 -29 -8 -10 -8 -15 1 -21 7 -4 9 -3 6 3 -4 6 0 16 8 23 12 10 13 16
4 26 -8 10 -8 14 0 14 6 0 12 -4 12 -10 1 -5 2 -14 3 -19 3 -23 13 -19 12 5
-1 17 5 29 14 31 12 4 12 3 2 -5 -11 -7 -9 -10 7 -15 12 -3 19 -1 15 4 -6 11
9 12 20 2 11 -11 36 -12 33 -1 -1 6 4 13 11 15 8 3 10 -2 6 -14 -5 -17 -5 -17
6 1 10 14 10 20 -1 27 -10 6 -8 8 8 7 12 -1 19 -7 16 -15 -3 -7 -1 -13 5 -13
5 0 13 7 16 16 3 8 10 12 16 9 6 -3 13 1 16 10 5 13 9 14 15 4 11 -18 2 -28
-20 -24 -19 3 -23 -16 -7 -32 4 -4 6 -1 4 7 -2 10 4 15 19 14 13 -1 20 2 17 7
-2 4 6 13 18 20 13 7 26 17 30 23 5 8 8 7 8 -1 0 -7 -9 -17 -20 -23 -11 -6
-20 -16 -20 -23 0 -9 3 -8 9 1 4 7 17 14 28 15 14 1 19 6 15 17 -5 12 -3 13 9
3 8 -6 24 -10 34 -8 11 2 24 4 28 4 5 1 5 11 2 22 -6 19 -5 20 8 8 8 -8 13
-17 11 -20 -2 -3 4 -6 12 -6 10 0 11 4 4 11 -5 5 -10 13 -10 17 0 9 42 5 58
-5 6 -3 16 2 21 12 11 21 50 23 73 4 8 -6 18 -9 21 -5 4 3 7 1 7 -6 0 -7 5 -9
10 -6 6 3 10 1 10 -5 0 -6 -7 -10 -16 -8 -10 2 -18 -5 -20 -15 -2 -13 1 -15 9
-9 16 13 45 11 43 -2 -1 -6 -7 -21 -14 -33 -7 -13 -8 -24 -3 -28 6 -3 8 -14 6
-25 -2 -12 0 -18 5 -15 9 6 8 24 -3 43 -5 6 -4 12 0 12 16 0 31 -36 22 -51
-13 -21 -11 -33 4 -21 9 8 17 8 27 0 12 -8 12 -9 -2 -4 -22 7 -23 -1 -4 -20 8
-8 20 -12 28 -11 7 2 10 2 6 0 -12 -7 -9 -33 3 -33 5 0 7 4 4 10 -3 6 1 7 10
4 14 -6 14 -8 -2 -19 -15 -11 -14 -12 10 -10 15 2 25 -1 21 -6 -3 -5 2 -12 10
-15 9 -3 13 -11 10 -16 -4 -6 -10 -5 -15 3 -6 10 -8 7 -6 -8 1 -17 5 -20 19
-12 12 6 18 6 18 -1 0 -5 -3 -10 -8 -10 -4 0 -13 -9 -20 -20 -8 -14 -9 -19 -1
-18 6 2 14 -3 17 -11 3 -8 0 -11 -7 -7 -17 11 -13 0 6 -15 11 -10 14 -10 9 -2
-4 7 -3 13 3 13 5 0 9 -9 8 -20 -1 -23 -8 -25 -25 -8 -9 9 -12 9 -12 0 0 -7 4
-12 9 -12 5 0 8 -8 6 -17 -2 -10 -4 -18 -5 -18 -1 0 -3 -8 -5 -18 -2 -9 1 -15
5 -12 5 3 11 1 15 -5 3 -5 1 -10 -5 -10 -6 0 -8 -5 -5 -10 4 -6 10 -8 15 -5 4
3 7 -3 5 -12 -2 -10 -4 -22 -4 -26 -1 -5 -6 -5 -13 -1 -7 5 -8 3 -4 -5 5 -7
13 -10 20 -8 7 3 11 -8 11 -28 0 -24 -4 -31 -15 -28 -13 4 -13 4 0 -6 20 -14
43 -14 34 1 -4 7 -3 8 5 4 9 -6 9 -11 0 -22 -6 -7 -15 -11 -20 -9 -9 6 -3 -35
7 -44 4 -3 4 2 1 11 -3 10 -2 20 3 23 6 4 10 2 10 -2 0 -5 7 -18 15 -29 15
-19 15 -19 9 1 -4 15 -4 17 4 6 6 -8 8 -20 6 -26 -4 -8 4 -11 20 -10 14 2 33
-3 43 -11 17 -14 16 -14 -4 -4 -14 6 -23 7 -23 1 0 -5 8 -12 19 -16 10 -3 23
-15 30 -28 6 -12 9 -14 7 -5 -3 10 0 20 6 24 6 4 8 3 5 -3 -4 -6 0 -13 8 -17
9 -3 12 -12 8 -23 -6 -16 -5 -17 12 -3 17 14 18 13 12 -2 -4 -12 -2 -15 8 -11
8 3 13 9 10 13 -3 5 -1 11 4 14 11 7 9 -13 -2 -31 -9 -15 0 -36 13 -28 4 3 13
-2 20 -10 7 -8 20 -15 29 -15 10 1 4 7 -14 17 -16 10 -33 16 -37 15 -15 -4 -8
16 7 22 8 3 15 1 15 -4 0 -5 17 -21 38 -36 20 -14 29 -24 20 -21 -10 4 -18 2
-18 -3 0 -6 7 -10 15 -10 8 0 15 -5 15 -11 0 -5 -5 -7 -12 -3 -7 5 -8 3 -3 -6
6 -10 11 -9 22 5 7 11 13 14 13 8 0 -7 -7 -18 -15 -27 -19 -18 -19 -23 0 -23
8 0 15 4 15 9 0 4 5 8 11 8 6 0 8 -7 5 -16 -3 -9 -2 -12 5 -8 6 3 9 14 6 24
-3 12 1 17 14 16 11 -1 19 -4 19 -8 0 -5 0 -15 0 -24 0 -8 -4 -13 -9 -9 -5 3
-12 2 -14 -2 -3 -5 15 -9 39 -10 24 0 41 3 38 8 -5 9 9 13 35 10 11 -2 11 0 0
12 -11 12 -17 12 -29 3 -13 -9 -13 -9 -3 5 7 9 9 20 5 24 -4 4 7 -2 25 -15 18
-13 29 -28 26 -34 -4 -6 1 -5 10 3 12 10 14 18 7 31 -10 19 2 36 18 26 5 -3 8
10 7 29 -2 19 1 32 6 30 4 -3 6 -13 3 -23 -5 -14 -4 -14 4 -3 6 8 8 21 4 29
-3 10 -1 13 6 8 8 -5 10 -2 6 8 -3 9 -9 14 -13 12 -4 -3 -7 7 -6 22 0 19 5 26
17 24 9 -1 20 3 24 9 4 8 3 9 -4 5 -7 -4 -12 -2 -12 4 0 6 -5 8 -12 4 -9 -6
-9 -3 0 9 8 9 11 21 7 27 -3 5 -2 10 4 10 5 0 11 -6 14 -12 2 -7 4 -1 4 15 0
22 -2 25 -13 16 -8 -7 -17 -9 -21 -5 -3 3 -1 6 6 6 7 0 11 8 10 18 -3 29 1 43
9 38 5 -3 9 1 9 8 0 7 -6 13 -13 13 -7 0 -11 -4 -8 -8 2 -4 0 -10 -5 -13 -5
-4 -8 1 -7 10 1 8 9 20 17 25 12 7 12 9 -1 10 -8 1 -18 1 -22 0 -4 0 -5 6 -2
14 3 8 2 20 -2 27 -13 20 -13 38 -2 38 6 0 7 -7 4 -16 -4 -10 -2 -13 6 -8 6 4
8 3 4 -4 -3 -6 -1 -14 5 -18 8 -5 9 -3 4 6 -6 10 -4 12 7 7 17 -6 19 16 3 30
-4 4 -5 2 -1 -4 4 -7 2 -13 -3 -13 -10 0 -15 14 -12 32 0 4 -5 5 -13 2 -9 -3
-13 1 -13 13 1 10 -3 17 -10 16 -6 -1 -10 7 -8 20 5 40 10 52 25 59 12 5 12 7
-2 7 -9 1 -22 -7 -28 -17 -9 -14 -10 -13 -4 7 4 15 2 21 -4 17 -7 -4 -9 3 -6
20 3 16 1 23 -6 19 -5 -3 -7 0 -4 8 3 8 1 18 -5 21 -7 5 -7 13 1 26 7 10 16
16 22 13 5 -3 6 -1 2 6 -6 9 -11 9 -22 0 -13 -11 -16 -7 -13 17 0 4 -5 11 -13
16 -10 8 -10 9 2 5 8 -2 14 -9 13 -15 -2 -7 4 -9 14 -5 11 4 13 8 5 11 -7 2
-10 7 -8 11 3 4 -1 8 -9 9 -8 1 -22 3 -30 4 -10 1 -12 5 -5 13 6 7 5 16 -3 25
-10 12 -9 12 3 4 23 -17 52 -25 45 -14 -3 6 -13 10 -21 10 -8 0 -14 5 -14 10
0 6 -6 10 -14 10 -18 0 -49 47 -36 55 6 3 16 3 23 0 6 -4 5 -1 -4 7 -9 7 -17
18 -18 23 -1 6 -11 15 -21 20 -24 13 -23 25 6 52 13 12 24 28 24 35 0 8 -5 6
-11 -5 -6 -9 -15 -14 -21 -11 -7 5 -8 2 -3 -6 6 -9 4 -11 -5 -5 -8 5 -11 4 -6
-3 3 -6 2 -13 -3 -16 -15 -9 -6 -37 15 -50 23 -13 28 -32 10 -39 -8 -3 -13 1
-12 11 0 10 -6 16 -16 16 -10 -1 -14 4 -11 13 3 8 0 13 -7 11 -7 -2 -14 3 -15
10 -2 7 -1 8 2 2 2 -5 9 -7 14 -4 6 4 6 11 -1 19 -8 9 -8 15 0 20 6 3 8 11 4
16 -3 5 0 8 8 7 7 -2 12 3 10 10 -1 8 2 11 8 7 6 -4 16 -2 23 4 16 13 42 -3
32 -19 -5 -9 -4 -11 4 -6 7 4 11 17 9 29 -2 17 2 21 16 19 13 -2 16 1 10 10
-6 9 -2 9 12 -2 30 -22 30 -24 9 -16 -15 5 -17 4 -9 -4 9 -9 17 -8 33 2 24 15
27 25 6 25 -8 0 -11 -5 -8 -10 3 -6 1 -7 -5 -3 -17 10 -15 29 2 23 8 -3 17 -1
20 6 3 9 5 9 5 0 1 -16 31 -17 31 -2 0 5 -6 7 -12 3 -9 -5 -8 -2 1 9 8 10 16
15 19 12 3 -3 14 2 24 12 10 9 18 13 18 9 0 -4 15 2 33 13 33 20 47 19 47 -3
0 -6 -5 -4 -10 4 -5 8 -10 10 -10 4 0 -6 3 -13 6 -17 8 -8 35 3 29 13 -3 4 2
11 11 14 9 4 14 13 10 21 -4 13 -2 13 14 5 25 -14 30 -13 24 5 -8 19 0 19 20
0 13 -14 15 -13 13 4 0 11 -4 18 -8 15 -4 -2 -11 1 -15 7 -4 8 -3 9 4 5 7 -4
12 -1 12 6 1 7 7 2 14 -11 8 -15 16 -20 20 -12 4 6 2 11 -4 11 -7 0 -5 7 4 16
9 8 13 20 10 26 -4 7 -2 8 4 4 6 -3 9 -15 7 -26 -2 -12 0 -18 6 -15 5 4 7 10
4 15 -3 5 -1 11 5 15 5 3 10 1 10 -4 0 -6 6 -11 13 -11 6 1 1 10 -13 22 -20
17 -21 20 -5 14 40 -15 54 -15 48 0 -3 8 -9 14 -15 14 -5 0 -6 -5 -2 -12 4 -7
3 -8 -4 -4 -17 11 -15 15 14 26 14 6 22 14 19 20 -3 6 1 7 10 4 11 -5 14 -2 9
12 -3 11 -2 15 3 9 14 -17 36 -17 30 -1 -4 11 -1 13 11 9 15 -6 16 -5 2 12
-13 17 -13 18 0 10 8 -4 24 -15 35 -24 16 -13 16 -11 -2 10 -26 29 -31 49 -7
25 8 -9 20 -16 25 -16 6 0 3 7 -5 16 -14 14 -14 34 0 34 3 0 3 -4 -1 -9 -3 -5
-1 -12 5 -16 5 -3 10 -1 10 5 0 6 8 10 17 8 12 -2 17 5 17 29 1 17 5 35 10 40
5 4 6 3 3 -3 -7 -12 21 -29 31 -19 3 3 0 5 -6 5 -7 0 -11 11 -10 24 2 21 7 23
33 20 l30 -3 -25 14 c-25 15 -25 15 10 10 31 -4 33 -3 13 7 -13 6 -23 15 -23
20 0 5 5 6 10 3 9 -6 14 7 11 27 0 4 6 5 14 2 9 -4 15 0 15 10 0 9 5 16 11 16
5 0 7 -6 3 -12 -5 -10 -3 -10 7 0 9 8 10 15 4 20 -6 4 -11 14 -13 22 -3 10 3
9 19 -5 12 -11 19 -13 14 -6 -5 8 -9 25 -10 37 0 19 2 21 20 12 19 -11 19 -10
3 9 -10 11 -18 24 -18 29 0 5 5 2 10 -6 8 -13 10 -12 10 3 0 9 5 17 11 17 5 0
7 -6 3 -12 -4 -7 -3 -10 1 -5 5 4 10 18 12 30 3 18 1 19 -8 7 -9 -12 -10 -11
-4 5 4 11 8 25 8 32 0 7 4 10 9 7 5 -3 5 -11 2 -17 -4 -7 -3 -8 2 -4 5 5 10
13 10 18 1 5 3 11 4 14 1 3 3 8 4 13 1 4 4 12 7 17 3 6 5 17 4 25 0 8 4 19 10
23 6 5 4 7 -5 4 -8 -2 -14 -9 -13 -15 2 -6 -4 -9 -13 -5 -12 4 -12 8 -4 13 7
4 10 12 6 18 -3 6 -2 13 4 17 6 4 7 11 4 17 -4 7 -2 8 5 4 9 -6 9 -11 0 -22
-7 -9 -8 -14 -1 -14 15 0 18 15 14 61 -3 26 -8 37 -16 32 -6 -4 -5 1 3 10 11
13 11 17 1 17 -8 0 -10 3 -7 7 4 3 2 12 -4 20 -15 18 8 48 26 33 8 -7 12 -5
12 5 0 8 -4 12 -9 9 -4 -3 -8 0 -8 7 0 8 -5 7 -17 -2 -15 -13 -15 -12 -3 8 8
12 19 19 25 15 5 -3 5 1 -2 9 -11 14 -13 19 -13 39 0 6 -5 10 -11 10 -8 0 -8
-4 -2 -12 14 -19 10 -41 -7 -45 -9 -3 -11 -1 -5 4 12 9 13 28 3 39 -11 10 -10
56 0 50 5 -3 9 1 9 9 0 18 -14 20 -20 3 -3 -9 -9 -7 -20 7 -8 11 -13 24 -9 29
3 5 -1 7 -10 4 -8 -4 -15 0 -15 7 0 10 5 11 18 5 12 -7 19 -5 23 6 3 8 2 12
-4 9 -6 -3 -15 -3 -21 1 -8 5 -8 9 1 14 8 5 7 9 -4 13 -8 3 -18 1 -22 -5 -5
-7 -2 -8 6 -3 9 5 11 4 6 -4 -13 -20 -27 -2 -16 20 8 15 7 21 -4 25 -8 3 -13
14 -11 26 3 14 1 17 -8 10 -15 -11 -48 -12 -41 0 3 4 0 8 -6 8 -6 0 -8 5 -5
11 5 6 11 4 19 -7 10 -13 15 -14 21 -4 5 9 4 11 -3 6 -7 -4 -13 -2 -13 3 -1 6
-2 15 -3 20 0 5 -5 13 -9 18 -5 4 -7 2 -5 -5 2 -8 -7 -18 -19 -22 -17 -7 -21
-6 -16 5 3 8 9 12 14 9 5 -3 6 2 3 11 -5 12 -10 13 -17 6 -15 -15 -24 -14 -30
3 -4 10 -1 13 9 9 7 -3 14 -1 14 5 0 5 -13 9 -28 8 -17 -1 -29 3 -29 11 0 6 3
10 7 8 3 -2 12 0 20 6 8 5 11 9 5 10 -5 0 -22 2 -38 3 -15 2 -35 10 -45 19
-10 10 -23 17 -28 17 -5 0 -2 -5 6 -10 9 -6 10 -10 3 -10 -6 0 -14 4 -18 9 -3
6 -14 8 -25 6 -14 -3 -17 1 -13 12 4 10 2 14 -4 10 -5 -4 -19 0 -29 9 -18 14
-17 14 6 4 24 -11 24 -11 5 5 -11 9 -19 22 -17 28 3 9 0 9 -9 0 -10 -10 -16
-10 -28 1 -11 10 -28 12 -56 7 -56 -10 -68 -8 -72 9 -4 13 -3 13 6 0 6 -8 11
-10 11 -4 0 18 -12 24 -31 13 -21 -11 -26 0 -8 18 8 8 8 13 0 18 -7 4 -10 1
-9 -7 2 -9 -7 -12 -27 -11 -24 2 -27 0 -15 -8 11 -8 8 -9 -13 -4 -20 4 -27 2
-22 -6 6 -8 2 -8 -13 0 -12 6 -20 17 -18 24 1 6 1 9 -1 4 -3 -4 -9 -4 -15 -1
-5 4 -4 -4 3 -17 11 -21 10 -22 -3 -12 -8 7 -18 11 -21 8 -4 -3 -5 -2 -2 2 3
3 -7 12 -21 20 -32 16 -37 16 -31 1 2 -7 10 -13 17 -13 7 0 14 -6 16 -13 1 -7
0 -8 -2 -3 -3 6 -11 8 -18 5 -7 -3 -18 5 -24 18 -12 22 -12 21 -7 -7 4 -20 3
-25 -4 -16 -5 8 -14 10 -22 5 -21 -13 -38 -13 -45 -2 -4 7 -9 6 -14 -2 -5 -9
-9 -8 -13 2 -4 11 5 14 36 14 28 -1 42 4 44 14 4 13 3 13 -6 0 -8 -12 -11 -12
-17 4 -6 16 -9 17 -18 5 -6 -8 -20 -14 -30 -14 -11 0 -20 -8 -22 -18 -1 -11
-6 -22 -10 -25 -4 -4 -4 1 -1 11 4 9 3 17 0 17 -4 0 -15 -8 -26 -17 -11 -10
-17 -12 -13 -5 5 8 1 12 -11 13 -15 0 -14 2 5 11 12 6 22 15 22 20 0 13 -18
10 -23 -4 -3 -9 -10 -7 -21 7 -17 19 -17 19 -5 -4z m-131 -43 c0 -8 3 -9 8 -3
10 14 39 14 39 0 0 -7 -8 -10 -20 -7 -14 4 -18 2 -13 -7 6 -9 3 -9 -13 1 -22
14 -28 28 -11 28 6 0 10 -6 10 -12z m564 -17 c4 -5 -3 -7 -14 -4 -23 6 -26 13
-6 13 8 0 17 -4 20 -9z m136 -6 c7 -8 16 -12 21 -9 5 3 6 -2 3 -10 -6 -16 -25
-23 -23 -8 3 19 -2 25 -11 12 -6 -10 -10 -11 -10 -2 0 6 -5 12 -11 12 -5 0 -7
-6 -3 -12 5 -9 2 -9 -9 1 -18 14 -23 26 -8 16 5 -3 12 -1 16 5 9 14 20 12 35
-5z m-529 -89 c5 3 9 -1 9 -8 0 -9 3 -9 10 2 5 8 10 10 10 4 0 -6 -3 -14 -6
-17 -10 -9 -44 12 -43 26 0 9 2 9 6 -1 2 -6 9 -10 14 -6z m721 -25 c-4 -10 -7
-11 -10 -3 -2 7 -9 9 -14 6 -6 -4 -8 -3 -5 3 10 16 36 11 29 -6z m-1405 -5 c0
-8 -6 -12 -14 -9 -7 3 -13 0 -13 -7 0 -7 -6 -10 -14 -7 -7 3 -20 0 -27 -6 -7
-7 -5 -2 5 10 10 13 22 21 25 18 4 -2 13 0 21 6 8 5 15 9 16 9 0 0 1 -6 1 -14z
m364 -23 c7 -10 9 -15 5 -11 -5 4 -14 4 -20 -2 -8 -6 -12 -3 -13 11 -2 24 10
25 28 2z m-451 -8 c0 -8 -4 -15 -8 -15 -5 0 -9 7 -9 15 0 8 4 15 9 15 4 0 8
-7 8 -15z m211 -54 c-7 -5 -11 -13 -8 -18 4 -6 -4 -9 -18 -7 -14 1 -25 -3 -25
-9 0 -5 -3 -7 -7 -4 -3 4 -12 2 -20 -4 -9 -8 -13 -8 -13 -1 0 6 9 14 20 17 11
3 20 12 20 18 0 9 3 8 8 -1 7 -9 13 -8 27 8 10 11 21 18 24 15 3 -4 -1 -10 -8
-14z m-291 -8 c0 -2 -10 -3 -22 -1 -14 2 -22 -2 -20 -9 1 -7 -2 -13 -8 -13
-14 0 -12 28 3 33 13 4 47 -3 47 -10z m1729 -20 c-3 -21 2 -33 13 -27 7 5 8 3
4 -5 -6 -9 -12 -8 -26 6 -12 12 -14 20 -6 25 14 10 16 10 15 1z m-1542 -18 c0
-8 -4 -12 -9 -9 -5 3 -6 10 -3 15 9 13 12 11 12 -6z m-394 -50 c-3 -9 -8 -14
-10 -11 -3 3 -2 9 2 15 9 16 15 13 8 -4z m225 -37 c-5 -15 -36 -19 -45 -6 -3
6 -1 8 5 4 6 -3 13 -2 17 4 9 14 28 13 23 -2z m-334 -43 c-4 -8 -11 -12 -16
-9 -6 4 -5 10 3 15 19 12 19 11 13 -6z m1121 -63 c-1 -10 2 -20 7 -23 6 -4 6
-9 -1 -13 -6 -4 -11 -2 -11 4 0 6 -5 8 -12 4 -7 -4 -8 -3 -4 4 4 7 1 12 -6 13
-10 0 -11 2 0 6 9 4 10 8 2 18 -9 11 -7 12 8 8 12 -3 19 -12 17 -21z m-995
-32 c-14 -10 -27 -16 -30 -13 -3 3 1 8 8 10 6 3 10 9 7 14 -4 5 1 6 9 3 10 -4
16 -1 16 7 0 7 3 9 7 5 4 -4 -3 -16 -17 -26z m830 12 c0 -4 -5 -13 -12 -20 -8
-8 -8 -15 2 -27 7 -8 10 -15 6 -15 -3 0 -9 0 -13 0 -8 0 -13 50 -6 63 5 10 23
9 23 -1z m-1073 -27 c4 -4 2 -5 -4 -1 -7 4 -13 2 -13 -3 0 -6 -4 -11 -8 -11
-5 0 -9 6 -9 14 0 15 21 16 34 1z m1748 -12 c-2 -10 -4 -19 -4 -21 -1 -2 -6 0
-11 3 -8 5 -7 11 1 21 15 18 18 18 14 -3z m-1585 -32 c0 -15 -51 -71 -63 -70
-8 0 -8 2 1 6 6 2 9 10 6 15 -4 6 -2 8 4 4 6 -3 19 7 28 24 19 32 24 36 24 21z
m-300 -156 c0 -2 -9 -3 -19 -2 -11 0 -18 5 -15 9 4 6 34 0 34 -7z m1385 5 c-3
-5 -12 -10 -18 -10 -7 0 -6 4 3 10 19 12 23 12 15 0z m-1 -91 c-3 -5 -10 -7
-15 -3 -5 3 -7 10 -3 15 3 5 10 7 15 3 5 -3 7 -10 3 -15z m1036 17 c0 -11 -19
-15 -25 -6 -3 5 1 10 9 10 9 0 16 -2 16 -4z m-2440 -12 c0 -8 -19 -13 -24 -6
-3 5 1 9 9 9 8 0 15 -2 15 -3z m2427 -20 c-3 -3 -12 -4 -19 -1 -8 3 -5 6 6 6
11 1 17 -2 13 -5z m-2440 -24 c2 -20 -8 -26 -20 -13 -4 3 -2 12 4 20 15 17 14
17 16 -7z m2206 -364 c4 -10 1 -13 -8 -9 -8 3 -12 9 -9 14 7 12 11 11 17 -5z
m-400 -80 c4 -10 1 -13 -8 -9 -8 3 -12 9 -9 14 7 12 11 11 17 -5z m-921 -43
c-6 -3 -10 -9 -7 -13 3 -5 1 -11 -4 -14 -11 -7 -9 13 3 32 4 7 11 10 15 6 3
-4 0 -9 -7 -11z m832 -24 c-3 -5 -10 -7 -15 -3 -5 3 -7 10 -3 15 3 5 10 7 15
3 5 -3 7 -10 3 -15z m-63 -32 c-8 -8 -11 -8 -11 2 0 7 -5 9 -10 6 -6 -4 -7
-11 -4 -17 5 -7 2 -8 -5 -3 -9 5 -6 14 11 32 20 21 24 22 26 8 2 -10 -1 -22
-7 -28z m26 21 c-3 -8 -6 -5 -6 6 -1 11 2 17 5 13 3 -3 4 -12 1 -19z m-191
-56 c1 -7 0 -8 -3 -2 -2 5 -9 8 -14 4 -5 -3 -9 0 -9 6 0 15 23 7 26 -8z m358
-30 c3 -5 -1 -9 -9 -9 -8 0 -12 4 -9 9 3 4 7 8 9 8 2 0 6 -4 9 -8z m-1298 -31
c2 -7 0 -7 -3 -1 -3 8 -9 7 -19 0 -14 -13 -38 -4 -29 11 8 12 48 5 51 -10z
m241 -166 c0 -8 -4 -12 -9 -9 -5 3 -6 10 -3 15 9 13 12 11 12 -6z m-110 -27
c2 -17 0 -19 -7 -8 -5 8 -6 18 -4 22 8 12 10 10 11 -14z m-22 -8 c3 -5 1 -10
-4 -10 -6 0 -11 5 -11 10 0 6 2 10 4 10 3 0 8 -4 11 -10z m-240 -39 c3 -5 1
-12 -5 -16 -5 -3 -10 1 -10 9 0 18 6 21 15 7z m682 -280 c-1 -15 -4 -17 -14
-9 -7 5 -10 14 -7 19 10 16 23 9 21 -10z m0 -111 c2 -11 -1 -20 -6 -20 -15 0
-23 18 -11 25 6 4 7 12 4 18 -4 7 -3 9 1 4 5 -4 10 -16 12 -27z m445 -488 c3
-11 0 -19 -8 -19 -16 0 -16 0 -8 21 8 21 11 20 16 -2z"/>
<path d="M1950 2780 c-8 -15 -8 -18 3 -14 8 3 14 11 14 19 0 20 -4 19 -17 -5z"/>
<path d="M1487 2779 c7 -7 15 -10 18 -7 3 3 -2 9 -12 12 -14 6 -15 5 -6 -5z"/>
<path d="M1671 2767 c-13 -21 -12 -21 5 -5 10 10 16 20 13 22 -3 3 -11 -5 -18
-17z"/>
<path d="M1444 2755 c-4 -8 -11 -12 -17 -8 -6 3 -7 1 -3 -5 10 -16 14 -15 26
8 6 11 8 20 5 20 -3 0 -8 -7 -11 -15z"/>
<path d="M1556 2761 c-3 -5 1 -11 9 -14 9 -4 12 -1 8 9 -6 16 -10 17 -17 5z"/>
<path d="M2093 2746 c-2 -19 -1 -19 8 -3 6 9 16 14 22 11 7 -4 8 -3 4 1 -15
17 -33 12 -34 -9z"/>
<path d="M1380 2750 c0 -5 -6 -8 -12 -6 -7 1 -10 1 -5 -1 4 -3 5 -9 2 -14 -4
-5 1 -6 9 -3 14 6 23 34 11 34 -3 0 -5 -4 -5 -10z"/>
<path d="M1297 2744 c-3 -3 -3 -13 0 -22 5 -11 3 -13 -7 -7 -9 5 -11 4 -6 -3
4 -7 2 -12 -5 -12 -7 0 -9 -3 -6 -6 4 -4 13 -2 21 5 10 9 15 9 18 1 2 -7 10
-4 21 8 15 17 16 21 3 31 -13 11 -15 9 -11 -8 2 -12 0 -21 -6 -21 -8 0 -13 15
-10 33 1 9 -4 9 -12 1z"/>
<path d="M1160 2700 c0 -5 5 -10 11 -10 5 0 7 5 4 10 -3 6 -8 10 -11 10 -2 0
-4 -4 -4 -10z"/>
<path d="M2273 2694 c9 -11 14 -24 10 -28 -4 -4 0 -4 10 0 9 3 17 11 17 17 0
6 -3 7 -7 4 -3 -4 -16 1 -27 10 -21 18 -21 18 -3 -3z"/>
<path d="M2355 2661 c-3 -5 -2 -12 3 -15 5 -3 9 1 9 9 0 17 -3 19 -12 6z"/>
<path d="M999 2658 c-5 -19 -8 -50 -4 -46 7 7 15 48 9 48 -2 0 -4 -1 -5 -2z"/>
<path d="M1735 2609 c-4 -6 -5 -11 -4 -12 2 -2 13 -9 24 -17 19 -14 19 -14 5
4 -14 18 -13 19 3 13 23 -9 22 0 -2 13 -14 7 -22 7 -26 -1z"/>
<path d="M1914 2588 c-3 -5 -3 -12 0 -15 3 -4 6 0 6 8 1 8 7 3 16 -11 l15 -25
-6 25 c-6 23 -5 24 8 7 13 -15 15 -15 20 -2 4 8 3 14 -1 14 -4 -1 -9 0 -12 1
-20 7 -41 7 -46 -2z"/>
<path d="M1400 2575 c-7 -9 -10 -18 -6 -22 3 -3 6 0 6 8 0 12 2 11 10 -1 7
-12 9 -10 7 8 -2 26 -1 26 -17 7z"/>
<path d="M1790 2580 c0 -5 5 -10 11 -10 5 0 7 5 4 10 -3 6 -8 10 -11 10 -2 0
-4 -4 -4 -10z"/>
<path d="M783 2557 c-3 -6 -1 -7 5 -3 6 3 15 -1 20 -10 6 -11 11 -13 16 -5 4
6 2 11 -4 11 -6 0 -9 4 -6 8 3 5 -2 9 -10 9 -8 0 -18 -5 -21 -10z"/>
<path d="M1440 2560 c-9 -6 -10 -10 -3 -10 6 0 15 5 18 10 8 12 4 12 -15 0z"/>
<path d="M1265 2550 c-4 -6 -12 -7 -18 -3 -9 5 -9 3 0 -8 6 -8 12 -18 13 -24
1 -5 4 -12 7 -15 4 -3 3 1 -1 8 -4 7 -2 12 6 12 9 0 9 3 -2 10 -13 9 -7 14 13
11 4 0 7 4 7 9 0 13 -17 13 -25 0z"/>
<path d="M2069 2542 c-13 -15 -12 -16 3 -4 13 10 17 10 21 0 4 -9 6 -9 6 -1 2
20 -16 24 -30 5z"/>
<path d="M1145 2510 c3 -5 8 -10 11 -10 2 0 4 5 4 10 0 6 -5 10 -11 10 -5 0
-7 -4 -4 -10z"/>
<path d="M2179 2508 c15 -21 31 -23 31 -6 0 6 -3 8 -7 5 -3 -4 -13 -1 -22 6
-14 11 -14 10 -2 -5z"/>
<path d="M1190 2496 c0 -2 8 -10 18 -17 15 -13 16 -12 3 4 -13 16 -21 21 -21
13z"/>
<path d="M2570 2476 c0 -2 8 -10 18 -17 15 -13 16 -12 3 4 -13 16 -21 21 -21
13z"/>
<path d="M565 2440 c-16 -7 -17 -9 -3 -9 9 -1 20 4 23 9 7 11 7 11 -20 0z"/>
<path d="M922 2429 c-12 -11 -27 -17 -34 -13 -7 4 -8 3 -4 -4 7 -11 -6 -17
-28 -13 -5 1 -4 -5 4 -13 7 -9 18 -16 24 -16 6 0 4 5 -4 10 -13 8 -12 10 5 11
11 1 24 1 28 0 5 -1 6 2 3 7 -8 13 27 38 49 34 16 -3 17 -1 5 7 -20 14 -23 14
-48 -10z"/>
<path d="M2299 2423 c-12 -14 -12 -16 0 -8 11 6 13 4 8 -8 -4 -11 -2 -14 9
-10 10 4 12 9 4 18 -5 6 -7 15 -3 18 3 4 4 7 1 7 -3 0 -12 -8 -19 -17z"/>
<path d="M492 2384 c-7 -8 -8 -14 -3 -14 10 0 25 19 20 25 -2 1 -10 -3 -17
-11z"/>
<path d="M2356 2381 c-4 -6 -2 -11 3 -11 6 0 11 -5 11 -11 0 -5 -5 -7 -11 -4
-6 4 -5 -2 3 -14 13 -22 24 -26 31 -13 7 12 -30 65 -37 53z"/>
<path d="M1455 2371 c-3 -5 -2 -12 3 -15 5 -3 9 1 9 9 0 17 -3 19 -12 6z"/>
<path d="M1534 2359 c-3 -6 -1 -16 5 -22 9 -9 11 -8 5 6 -5 13 -2 16 10 11 9
-3 16 -4 16 -1 0 11 -30 16 -36 6z"/>
<path d="M2605 2360 c4 -6 11 -8 16 -5 14 9 11 15 -7 15 -8 0 -12 -5 -9 -10z"/>
<path d="M1475 2341 c-3 -5 0 -13 6 -17 8 -5 9 -3 4 6 -6 10 -4 12 9 7 10 -4
15 -3 11 3 -8 13 -22 13 -30 1z"/>
<path d="M410 2316 c0 -2 7 -7 16 -10 8 -3 12 -2 9 4 -6 10 -25 14 -25 6z"/>
<path d="M2390 2310 c-9 -6 -10 -10 -3 -10 6 0 15 5 18 10 8 12 4 12 -15 0z"/>
<path d="M698 2302 c6 -2 9 -8 6 -14 -4 -6 1 -6 13 1 11 6 23 7 27 4 3 -3 6
-2 6 4 0 5 -15 10 -32 10 -18 0 -27 -2 -20 -5z"/>
<path d="M1420 2296 c0 -2 7 -7 16 -10 8 -3 12 -2 9 4 -6 10 -25 14 -25 6z"/>
<path d="M2136 2287 c3 -10 9 -15 12 -12 3 3 0 11 -7 18 -10 9 -11 8 -5 -6z"/>
<path d="M2255 2290 c-4 -6 -11 -7 -17 -4 -7 4 -8 2 -4 -5 6 -9 11 -9 22 0 14
11 18 19 10 19 -3 0 -8 -5 -11 -10z"/>
<path d="M372 2277 c10 -8 14 -18 10 -22 -4 -5 -1 -5 6 -1 17 10 15 14 -10 26
-21 10 -21 10 -6 -3z"/>
<path d="M2416 2222 c-3 -4 4 -9 15 -9 23 -2 25 3 4 10 -8 4 -16 3 -19 -1z"/>
<path d="M2313 2205 c0 -8 4 -15 9 -15 4 0 8 4 8 9 0 6 -4 12 -8 15 -5 3 -9
-1 -9 -9z"/>
<path d="M565 2191 c-2 -5 2 -17 10 -27 12 -15 14 -15 9 -2 -4 11 1 18 13 20
15 3 15 5 -4 10 -13 3 -25 3 -28 -1z"/>
<path d="M260 2185 c0 -2 6 -8 13 -14 10 -8 14 -7 14 2 0 8 -6 14 -14 14 -7 0
-13 -1 -13 -2z"/>
<path d="M2656 2182 c-4 -7 -3 -19 4 -26 6 -8 13 -24 15 -36 2 -13 7 -25 11
-29 4 -3 4 2 0 13 -5 14 -3 17 11 12 17 -6 17 -5 0 8 -10 8 -22 27 -26 42 -5
19 -10 24 -15 16z"/>
<path d="M236 2131 c-4 -6 -2 -11 5 -11 7 0 5 -8 -6 -20 -15 -16 -16 -23 -6
-33 10 -9 11 -8 6 6 -4 9 -3 17 3 17 14 0 22 24 12 39 -5 9 -10 10 -14 2z"/>
<path d="M2421 2105 c9 -11 15 -28 14 -37 -2 -10 1 -18 6 -18 5 0 10 5 10 10
3 20 4 25 12 38 5 7 4 12 -2 12 -6 0 -11 -5 -11 -12 0 -6 -10 -3 -22 8 -23 19
-23 19 -7 -1z"/>
<path d="M447 2072 c-15 -16 -15 -19 3 -30 12 -7 21 -8 25 -2 4 6 3 9 -2 8 -8
-3 -13 5 -13 23 0 5 5 7 12 3 7 -4 8 -3 4 4 -9 15 -10 15 -29 -6z"/>
<path d="M2691 2064 c0 -11 3 -14 6 -6 3 7 2 16 -1 19 -3 4 -6 -2 -5 -13z"/>
<path d="M2418 2029 c-4 -10 1 -15 13 -16 23 -2 34 13 18 23 -8 4 -9 3 -5 -4
4 -7 3 -12 -3 -12 -5 0 -11 5 -13 12 -3 8 -6 7 -10 -3z"/>
<path d="M1394 2015 c1 -8 6 -18 11 -22 4 -4 5 -3 2 4 -4 6 -2 13 5 15 8 3 6
6 -4 10 -10 4 -15 2 -14 -7z"/>
<path d="M1853 2003 c4 -3 2 -11 -3 -18 -7 -8 -6 -12 3 -12 7 0 14 9 14 19 1
10 -3 18 -9 18 -6 0 -8 -3 -5 -7z"/>
<path d="M2410 1956 c0 -2 7 -7 16 -10 8 -3 12 -2 9 4 -6 10 -25 14 -25 6z"/>
<path d="M1397 1939 c7 -7 15 -10 18 -7 3 3 -2 9 -12 12 -14 6 -15 5 -6 -5z"/>
<path d="M1637 1917 c-3 -8 1 -14 8 -14 7 0 11 6 8 14 -3 7 -6 13 -8 13 -2 0
-5 -6 -8 -13z"/>
<path d="M2357 1879 c7 -7 15 -10 18 -7 3 3 -2 9 -12 12 -14 6 -15 5 -6 -5z"/>
<path d="M2366 1851 c-17 -6 -17 -8 -4 -14 10 -3 19 0 22 9 3 8 4 14 3 13 -1
0 -11 -4 -21 -8z"/>
<path d="M226 1831 c-4 -5 -2 -12 4 -16 5 -3 10 -3 10 1 0 3 11 -1 25 -10 35
-23 31 -12 -4 14 -17 11 -32 16 -35 11z"/>
<path d="M2020 1826 c0 -2 8 -10 18 -17 15 -13 16 -12 3 4 -13 16 -21 21 -21
13z"/>
<path d="M2349 1821 c-1 -6 -2 -17 -3 -23 -1 -7 -8 -12 -16 -10 -13 3 -13 1
-1 -10 10 -10 15 -10 18 -1 2 7 4 15 3 19 -1 4 4 10 10 14 9 5 9 9 1 14 -6 4
-12 2 -12 -3z"/>
<path d="M297 1803 c3 -7 6 -13 8 -13 2 0 5 6 8 13 3 8 -1 14 -8 14 -7 0 -11
-6 -8 -14z"/>
<path d="M256 1787 c3 -10 9 -15 12 -12 3 3 0 11 -7 18 -10 9 -11 8 -5 -6z"/>
<path d="M1403 1778 c4 -11 0 -18 -11 -20 -14 -3 -13 -5 5 -10 17 -5 21 -2 18
14 -3 12 -7 23 -11 27 -4 3 -4 -2 -1 -11z"/>
<path d="M2290 1759 c0 -5 5 -7 10 -4 6 3 10 8 10 11 0 2 -4 4 -10 4 -5 0 -10
-5 -10 -11z"/>
<path d="M2590 1758 c0 -4 4 -8 9 -8 6 0 12 4 15 8 3 5 -1 9 -9 9 -8 0 -15 -4
-15 -9z"/>
<path d="M2274 1719 c-8 -14 14 -19 25 -6 8 10 7 14 -5 14 -8 0 -17 -4 -20 -8z"/>
<path d="M2525 1669 c-4 -6 -5 -12 -2 -15 2 -3 7 2 10 11 7 17 1 20 -8 4z"/>
<path d="M2206 1627 c3 -10 9 -15 12 -12 3 3 0 11 -7 18 -10 9 -11 8 -5 -6z"/>
<path d="M2184 1622 c3 -5 0 -13 -6 -15 -9 -4 -10 -6 -1 -6 17 -1 25 16 12 25
-7 4 -9 3 -5 -4z"/>
<path d="M1290 1605 c0 -5 5 -17 10 -25 5 -8 10 -10 10 -5 0 6 -5 17 -10 25
-5 8 -10 11 -10 5z"/>
<path d="M2466 1601 c-4 -5 -2 -12 3 -15 5 -4 12 -2 15 3 4 5 2 12 -3 15 -5 4
-12 2 -15 -3z"/>
<path d="M1714 1568 c-4 -7 -4 -10 1 -6 4 4 14 3 21 -3 9 -7 14 -6 20 3 4 7 4
10 -1 6 -4 -4 -14 -3 -21 3 -9 7 -14 6 -20 -3z"/>
<path d="M2436 1547 c3 -10 9 -15 12 -12 3 3 0 11 -7 18 -10 9 -11 8 -5 -6z"/>
<path d="M1220 1547 c0 -2 6 -10 14 -16 11 -9 16 -9 22 1 4 7 4 10 -1 6 -4 -4
-14 -3 -22 3 -7 6 -13 9 -13 6z"/>
<path d="M1693 1495 c0 -8 4 -12 9 -9 4 3 8 9 8 15 0 5 -4 9 -8 9 -5 0 -9 -7
-9 -15z"/>
<path d="M2015 1500 c-3 -5 -1 -10 4 -10 6 0 11 5 11 10 0 6 -2 10 -4 10 -3 0
-8 -4 -11 -10z"/>
<path d="M1715 1479 c-4 -6 -5 -12 -2 -15 2 -3 7 2 10 11 7 17 1 20 -8 4z"/>
<path d="M1898 1438 c5 -5 16 -8 23 -6 8 3 3 7 -10 11 -17 4 -21 3 -13 -5z"/>
<path d="M2330 1439 c0 -5 5 -7 10 -4 6 3 10 8 10 11 0 2 -4 4 -10 4 -5 0 -10
-5 -10 -11z"/>
<path d="M2278 1419 c-10 -5 -18 -15 -18 -20 0 -6 7 -3 16 5 8 9 20 14 25 11
5 -4 9 -1 9 4 0 14 -10 13 -32 0z"/>
<path d="M1710 1360 c-9 -6 -10 -10 -3 -10 6 0 15 5 18 10 8 12 4 12 -15 0z"/>
<path d="M945 1352 c-5 -4 -17 -16 -25 -27 -11 -15 -7 -14 15 5 17 14 32 26
34 28 2 1 0 2 -5 2 -5 0 -13 -4 -19 -8z"/>
<path d="M1768 1353 c-10 -3 -18 -8 -18 -12 0 -10 39 -11 45 -1 7 11 -6 17
-27 13z"/>
<path d="M895 1340 c-3 -5 -1 -10 4 -10 6 0 11 5 11 10 0 6 -2 10 -4 10 -3 0
-8 -4 -11 -10z"/>
<path d="M835 1300 c-3 -5 -1 -10 4 -10 6 0 11 5 11 10 0 6 -2 10 -4 10 -3 0
-8 -4 -11 -10z"/>
<path d="M2069 1263 c-13 -16 -12 -17 4 -4 16 13 21 21 13 21 -2 0 -10 -8 -17
-17z"/>
<path d="M650 1261 c0 -7 -4 -10 -8 -7 -5 3 -9 -2 -9 -10 0 -13 2 -13 16 0 8
9 12 19 8 22 -4 4 -7 2 -7 -5z"/>
<path d="M1986 1251 c-3 -5 1 -11 9 -14 9 -4 12 -1 8 9 -6 16 -10 17 -17 5z"/>
<path d="M1930 1225 c-7 -8 -17 -12 -24 -8 -7 4 -6 1 1 -7 10 -11 10 -17 0
-29 -11 -14 -10 -14 5 -2 10 7 15 17 12 22 -5 8 3 11 24 8 4 -1 6 -5 4 -11 -1
-5 2 -7 8 -3 8 5 7 12 -2 23 -7 10 -13 18 -14 20 -1 1 -7 -4 -14 -13z"/>
<path d="M1967 1229 c7 -7 15 -10 18 -7 3 3 -2 9 -12 12 -14 6 -15 5 -6 -5z"/>
<path d="M467 1203 c-3 -5 6 -9 19 -9 13 -1 21 2 18 7 -6 11 -31 12 -37 2z"/>
<path d="M1786 1160 c5 -8 9 -18 9 -22 0 -3 3 -9 7 -13 3 -4 5 0 4 9 -1 9 -8
22 -16 29 -10 10 -11 9 -4 -3z"/>
<path d="M1026 1088 c3 -4 10 -6 15 -3 5 4 9 0 9 -7 0 -9 3 -9 10 2 6 10 10
11 10 3 0 -7 5 -13 12 -13 9 0 9 3 0 12 -14 14 -64 19 -56 6z"/>
<path d="M950 1076 c0 -2 7 -7 16 -10 8 -3 12 -2 9 4 -6 10 -25 14 -25 6z"/>
<path d="M1005 1060 c-3 -6 1 -7 9 -4 18 7 21 14 7 14 -6 0 -13 -4 -16 -10z"/>
<path d="M1115 1029 c-10 -15 3 -25 16 -12 7 7 7 13 1 17 -6 3 -14 1 -17 -5z"/>
<path d="M250 1020 c0 -5 5 -10 11 -10 5 0 7 5 4 10 -3 6 -8 10 -11 10 -2 0
-4 -4 -4 -10z"/>
<path d="M1755 984 c8 -6 13 -13 10 -16 -3 -2 1 -5 8 -5 7 0 13 7 13 16 0 10
-9 16 -23 16 -20 0 -21 -2 -8 -11z"/>
<path d="M250 959 c0 -5 10 -8 23 -6 15 1 22 -3 21 -15 -1 -10 4 -14 12 -11
12 4 9 32 -5 34 -28 6 -51 5 -51 -2z"/>
<path d="M350 949 c0 -5 5 -7 10 -4 6 3 10 8 10 11 0 2 -4 4 -10 4 -5 0 -10
-5 -10 -11z"/>
<path d="M1146 878 c3 -4 11 -5 19 -1 21 7 19 12 -4 10 -11 0 -18 -5 -15 -9z"/>
<path d="M1243 809 c-2 -23 3 -25 10 -4 4 8 3 16 -1 19 -4 3 -9 -4 -9 -15z"/>
<path d="M1825 811 c-3 -6 1 -13 8 -18 7 -4 13 -19 13 -32 0 -14 5 -26 11 -28
7 -3 11 5 10 16 -1 12 -5 21 -10 21 -4 0 -5 5 -2 10 3 6 -1 13 -10 16 -13 6
-14 8 -3 15 9 6 9 9 1 9 -6 0 -14 -4 -18 -9z"/>
<path d="M1874 676 c-19 -15 -19 -15 4 -38 17 -17 21 -19 16 -5 -3 9 -10 17
-15 17 -5 0 -9 5 -9 11 0 5 4 8 9 5 5 -3 11 1 15 9 7 19 5 19 -20 1z"/>
<path d="M1270 562 c0 -5 7 -9 15 -9 8 0 12 4 9 9 -3 4 -9 8 -15 8 -5 0 -9 -4
-9 -8z"/>
<path d="M1920 440 c8 -5 20 -10 25 -10 6 0 3 5 -5 10 -8 5 -19 10 -25 10 -5
0 -3 -5 5 -10z"/>
<path d="M1936 361 c-3 -5 2 -15 12 -22 15 -12 16 -12 5 2 -7 9 -10 19 -6 22
3 4 4 7 0 7 -3 0 -8 -4 -11 -9z"/>
<path d="M1380 339 c0 -5 5 -7 10 -4 6 3 10 8 10 11 0 2 -4 4 -10 4 -5 0 -10
-5 -10 -11z"/>
<path d="M1430 311 c0 -6 4 -13 10 -16 6 -3 7 1 4 9 -7 18 -14 21 -14 7z"/>
<path d="M1890 312 c0 -7 7 -15 15 -18 8 -4 12 -11 8 -17 -3 -6 -1 -7 6 -3 6
4 9 11 6 16 -3 4 -2 10 2 13 5 2 3 3 -3 1 -6 -1 -17 3 -23 9 -8 8 -11 8 -11
-1z"/>
<path d="M1895 200 c-3 -5 -1 -10 4 -10 6 0 11 5 11 10 0 6 -2 10 -4 10 -3 0
-8 -4 -11 -10z"/>
<path d="M1587 179 c7 -7 15 -10 18 -7 3 3 -2 9 -12 12 -14 6 -15 5 -6 -5z"/>
<path d="M1860 120 c-9 -6 -10 -10 -3 -10 6 0 15 5 18 10 8 12 4 12 -15 0z"/>
</g>
</svg>
